<?xml version="1.0" encoding="iso-8859-1"?>
<!-- Generator: Adobe Illustrator 19.0.0, SVG Export Plug-In . SVG Version: 6.00 Build 0)  -->
<svg version="1.1" id="Layer_1" xmlns="http://www.w3.org/2000/svg" xmlns:xlink="http://www.w3.org/1999/xlink" x="0px" y="0px"
	 viewBox="0 0 491.52 491.52" style="enable-background:new 0 0 491.52 491.52;" xml:space="preserve">
<g>
	<g>
		<path d="M263.213,465.658c-3.551,0-6.589-2.549-7.202-6.046l-10.522-59.871l-2.699-15.36h7.454c3.157,0,5.718-2.56,5.718-5.719
			v-44.078c0-3.159-2.561-5.719-5.718-5.719h-17.209l-4.518-25.707h-74.723l32.124,182.815c0.564,3.207,3.35,5.547,6.606,5.547
			h22.545h46.549h1.595c7.141,0,12.93-5.789,12.93-12.931C276.143,471.447,270.354,465.658,263.213,465.658z"/>
	</g>
</g>
<g>
	<g>
		<path d="M125.803,111.855l-32.967,11.39v14.682H61.893c-6.225,0-11.272,5.047-11.272,11.272v6.767H33.547
			c-6.226,0-11.273,5.046-11.273,11.272v65.179c0,6.225,5.047,11.272,11.273,11.272h17.074v6.765
			c0,6.226,5.047,11.273,11.272,11.273h30.943v14.681l32.967,11.391h27.991h74.725h26.097V111.855H125.803z"/>
	</g>
</g>
<g>
	<g>
		<path d="M450.776,0c-10.201,0-18.472,8.27-18.472,18.472v0.458l-162.329,92.924v175.944l162.329,92.923v0.46
			c0,10.201,8.271,18.471,18.472,18.471c10.2,0,18.471-8.271,18.471-18.471V18.472C469.247,8.27,460.977,0,450.776,0z"/>
	</g>
</g>
<g>
</g>
<g>
</g>
<g>
</g>
<g>
</g>
<g>
</g>
<g>
</g>
<g>
</g>
<g>
</g>
<g>
</g>
<g>
</g>
<g>
</g>
<g>
</g>
<g>
</g>
<g>
</g>
<g>
</g>
</svg>
